Coordinates
version=1
nRows=21
nColumns=34
inDegrees=no

Units are S.I. units (second, meters, Newtons, ...)
If the header above contains a line with 'inDegrees', this indicates whether rotational values are in degrees (yes) or radians (no).

endheader
time	pelvis_tilt	pelvis_list	pelvis_rotation	pelvis_tx	pelvis_ty	pelvis_tz	hip_flexion_r	hip_adduction_r	hip_rotation_r	knee_angle_r	ankle_angle_r	subtalar_angle_r	mtp_angle_r	hip_flexion_l	hip_adduction_l	hip_rotation_l	knee_angle_l	ankle_angle_l	subtalar_angle_l	mtp_angle_l	lumbar_extension	lumbar_bending	lumbar_rotation	arm_flex_r	arm_add_r	arm_rot_r	elbow_flex_r	pro_sup_r	arm_flex_l	arm_add_l	arm_rot_l	elbow_flex_l	pro_sup_l
0	-0.0348347	0.0371704	0.14845	-0.199849	0.876706	-0.244448	0.614275	-0.12326	-0.39502	0.191016	0.196928	0.235304	-0.0110411	-0.154385	-0.0140882	-0.274094	0.286774	0.5877	0.606595	-0.0110668	-0.144816	-0.0583681	-0.223609	-0.425661	-0.232646	0.051551	0.536038	1.77939	0.26463	-0.226998	-0.0602174	1.17467	1.76176
0.01	-0.0332494	0.0335723	0.15477	-0.182185	0.883679	-0.243944	0.603547	-0.129135	-0.405158	0.200837	0.182319	0.255578	-0.0110379	-0.171449	-0.0238268	-0.262316	0.292584	0.593578	0.599558	-0.0110636	-0.14358	-0.052082	-0.226779	-0.429795	-0.231097	0.0469415	0.529023	1.7784	0.262201	-0.221344	-0.0666892	1.17707	1.76333
0.02	-0.0307899	0.0289451	0.160333	-0.164671	0.889846	-0.243299	0.593757	-0.13211	-0.412447	0.213326	0.164686	0.266089	-0.0110347	-0.186712	-0.0343247	-0.248174	0.30243	0.592672	0.586449	-0.0110604	-0.14331	-0.0446889	-0.229486	-0.431678	-0.229925	0.0442012	0.522251	1.77871	0.257895	-0.216314	-0.0726877	1.1786	1.76455
0.03	-0.0274863	0.0232545	0.165111	-0.147315	0.895259	-0.242504	0.584897	-0.13216	-0.416809	0.228398	0.144137	0.266746	-0.0110315	-0.200064	-0.045609	-0.231725	0.316417	0.584934	0.567285	-0.0110572	-0.143961	-0.0361704	-0.231703	-0.431296	-0.229134	0.0433445	0.515725	1.78028	0.251716	-0.211907	-0.0782035	1.17922	1.76544
0.04	-0.0234324	0.0164374	0.169035	-0.130129	0.899977	-0.241546	0.576952	-0.129203	-0.418022	0.245811	0.121054	0.257357	-0.0110282	-0.2112	-0.0577382	-0.213164	0.334837	0.570222	0.542163	-0.0110539	-0.145432	-0.0264917	-0.233343	-0.428625	-0.228733	0.0443901	0.509466	1.78299	0.243706	-0.208121	-0.0831974	1.17885	1.76596
0.05	-0.0187941	0.00841902	0.171997	-0.113134	0.904064	-0.240412	0.5699	-0.123101	-0.415716	0.265149	0.0962296	0.237812	-0.011025	-0.2196	-0.0707902	-0.192881	0.35819	0.548306	0.511345	-0.0110507	-0.147566	-0.0156201	-0.23426	-0.423645	-0.228725	0.0473276	0.503538	1.78658	0.233968	-0.204937	-0.0875856	1.17731	1.76613
0.06	-0.0137971	-0.000858698	0.173868	-0.0963567	0.907588	-0.239087	0.563693	-0.11372	-0.40947	0.285849	0.0709043	0.208425	-0.0110218	-0.224575	-0.0848366	-0.17147	0.387124	0.518918	0.475327	-0.0110475	-0.150172	-0.00355273	-0.234258	-0.416376	-0.229108	0.0520741	0.498082	1.79064	0.222693	-0.20231	-0.0912387	1.17432	1.76596
0.07	-0.00870375	-0.011402	0.174541	-0.0798287	0.910618	-0.237562	0.558231	-0.101021	-0.398996	0.307249	0.0466813	0.170332	-0.0110186	-0.225345	-0.0999042	-0.149686	0.422303	0.481853	0.434841	-0.0110442	-0.153037	0.00965473	-0.23313	-0.406894	-0.22987	0.0584369	0.493323	1.79468	0.210162	-0.200161	-0.0939972	1.16952	1.76553
0.08	-0.00378903	-0.0231341	0.173966	-0.0635817	0.913227	-0.235844	0.553335	-0.0851656	-0.384383	0.328655	0.0253193	0.125735	-0.0110153	-0.221159	-0.11593	-0.128304	0.464247	0.437092	0.390745	-0.011041	-0.155946	0.0238658	-0.230709	-0.395341	-0.230991	0.0660997	0.489571	1.7982	0.196724	-0.198374	-0.0957031	1.16247	1.76507
0.09	0.000676502	-0.03588	0.172201	-0.0476453	0.915491	-0.233955	0.548747	-0.0665785	-0.366316	0.349395	0.00845482	0.0777218	-0.0110121	-0.211386	-0.13272	-0.107939	0.513175	0.384931	0.343819	-0.0110378	-0.158691	0.0388553	-0.226927	-0.381914	-0.232441	0.0746375	0.487183	1.80085	0.182771	-0.196798	-0.0962391	1.1527	1.76491
0.1	0.00444182	-0.0493669	0.169424	-0.0320444	0.917482	-0.231938	0.544149	-0.0459589	-0.34615	0.368859	-0.00265408	0.0298768	-0.0110089	-0.195601	-0.149939	-0.0889584	0.568882	0.326126	0.294675	-0.0110346	-0.16107	0.0543132	-0.221849	-0.366848	-0.234184	0.0835515	0.48652	1.80253	0.1687	-0.195267	-0.0955578	1.13972	1.76555
0.11	0.00729169	-0.0632334	0.165924	-0.0167973	0.919266	-0.22985	0.5392	-0.0242284	-0.325705	0.386524	-0.0073067	-0.0142317	-0.0110056	-0.173647	-0.167117	-0.0714607	0.630685	0.262006	0.243747	-0.0110313	-0.162905	0.069852	-0.215666	-0.35039	-0.236173	0.0923218	0.487903	1.80336	0.154883	-0.193614	-0.0936962	1.12309	1.76753
0.12	0.00906862	-0.07705	0.162056	-0.00191325	0.920905	-0.227754	0.533572	-0.00243237	-0.306944	0.401972	-0.00542799	-0.0515209	-0.0110024	-0.14568	-0.183672	-0.0553223	0.697418	0.19452	0.191336	-0.0110281	-0.164054	0.0850252	-0.208668	-0.332783	-0.238349	0.100469	0.491565	1.80364	0.141649	-0.191693	-0.0907738	1.10242	1.77135
0.13	0.00969596	-0.0903508	0.158203	0.0126081	0.922452	-0.225711	0.526972	0.0183798	-0.291631	0.414899	0.00247278	-0.079734	-0.0109992	-0.112173	-0.198949	-0.0402737	0.767509	0.126175	0.1377	-0.0110249	-0.164438	0.099357	-0.201194	-0.314239	-0.240644	0.107609	0.497631	1.80372	0.129267	-0.189395	-0.0869772	1.07742	1.77733
0.14	0.00919323	-0.102672	0.154714	0.0267755	0.923957	-0.223774	0.519156	0.037275	-0.281071	0.425118	0.0154286	-0.0976126	-0.010996	-0.073893	-0.212281	-0.0259931	0.839097	0.0598695	0.0831667	-0.0110217	-0.164066	0.11238	-0.193581	-0.294933	-0.242986	0.113496	0.506097	1.80387	0.117945	-0.186663	-0.0825336	1.04798	1.78545
0.15	0.00767665	-0.113591	0.151864	0.0406052	0.925463	-0.221978	0.509935	0.0535341	-0.275961	0.432559	0.0321891	-0.104898	-0.0109927	-0.0318325	-0.223049	-0.0121967	0.910194	-0.00139564	0.0282412	-0.0110184	-0.163036	0.12367	-0.186116	-0.274992	-0.24531	0.118044	0.516849	1.80423	0.107811	-0.183499	-0.0776786	1.01416	1.79534
0.16	0.00534192	-0.12276	0.149807	0.0541187	0.927011	-0.220343	0.499181	0.0667133	-0.276354	0.437252	0.0514045	-0.102196	-0.0109895	0.0128788	-0.230745	0.00128835	0.978838	-0.0548615	-0.0263147	-0.0110152	-0.161527	0.132878	-0.178996	-0.254495	-0.247564	0.121316	0.529681	1.80477	0.0989108	-0.179962	-0.0726263	0.976254	1.80623
0.17	0.00243236	-0.129931	0.148555	0.0673423	0.928635	-0.218867	0.486834	0.0766587	-0.28173	0.439315	0.0717875	-0.0907438	-0.0109863	0.0590774	-0.23502	0.0144784	1.04324	-0.0983634	-0.079457	-0.011012	-0.159768	0.139745	-0.172305	-0.233484	-0.249719	0.123507	0.544332	1.80536	0.091186	-0.176174	-0.0675445	0.934792	1.81712
0.18	-0.000801275	-0.134958	0.14797	0.0803068	0.930364	-0.21753	0.472907	0.0834805	-0.291143	0.43893	0.0922354	-0.0721421	-0.0109831	0.105658	-0.235715	0.0272195	1.10186	-0.130604	-0.1299	-0.0110088	-0.158	0.144109	-0.166011	-0.211975	-0.25177	0.124897	0.560521	1.80583	0.0844697	-0.172301	-0.062539	0.890529	1.82692
0.19	-0.00414795	-0.137796	0.147778	0.0930453	0.932217	-0.216301	0.45748	0.0874957	-0.303402	0.436328	0.111904	-0.0480889	-0.0109798	0.151643	-0.232873	0.0392045	1.15352	-0.151287	-0.17623	-0.0110055	-0.156449	0.145903	-0.159978	-0.189975	-0.253735	0.12581	0.577984	1.80602	0.0784839	-0.168553	-0.0576497	0.84441	1.83469
0.2	-0.00743895	-0.138484	0.147608	0.105589	0.934191	-0.215138	0.440696	0.0891555	-0.317253	0.431762	0.130231	-0.0201692	-0.0109766	0.196223	-0.226734	0.0500156	1.19735	-0.161089	-0.217066	-0.0110023	-0.155285	0.145147	-0.153989	-0.167498	-0.255652	0.126558	0.596505	1.80588	0.0728543	-0.165159	-0.052855	0.797515	1.83983
